<?xml version="1.0" encoding="UTF-8"?>
<svg xmlns="http://www.w3.org/2000/svg" xmlns:xlink="http://www.w3.org/1999/xlink" viewBox="0 0 1024 1536">
  <g id="København">
    <image width="1024" height="1536" xlink:href="NY SVG MAP.png"/>
  </g>
  <g id="Punkter">
    <polygon id="hvidovre" points="141.15 597.79 141.15 474.09 195.95 414.32 347.04 414.32 420.1 490.7 398.51 489.87 399.34 597.79 141.15 597.79" fill="none" stroke="#000" stroke-miterlimit="10"/>
    <path id="indre" d="M684.1,506.06v-72.64s-19.09-4.98-12.45-19.09,21.59-29.06,21.59-29.06h-22.99v-127.85h196.5v124.32h-20.75l20.75,32.59s-.83,18.26-15.77,19.09l.83,72.64h-167.7Z" fill="none" stroke="#000" stroke-miterlimit="10"/>
    <polygon id="_østerbro" data-name="østerbro" points="321.59 952.84 321.59 750.85 332.1 750.85 332.1 739.54 461.37 739.54 461.37 752.47 471.87 752.47 471.87 952.84 321.59 952.84" fill="none" stroke="#000" stroke-miterlimit="10"/>
    <path id="assistent" d="M649.62,1258.24v-27.47h7.27v-167.25l-11.31-16.16h16.97s-2.77-25.96,13.64-24.88v-5.92s-11.83-8.2,2.56-14.93c0,0,14.93,3.09,4.71,14.66l.13,6.19s15.33,5.24,11.57,24.74l30.14,1.34,22.49-41.48,9.5-5.45h12.99l11,5.95,5,8,3.16-.14v-32.03l-10.08,7.08-3.6-3.48,8.4-6.6-9.12-7.56,3.72-3.36,8.76,6.84,1.92-.36v-20.87l1.92-1.32,3.36,2.4v19.67l9-6.48,3.96.96v3.36l-7.92,5.16-.6,2.52,9.48,5.28-2.04,3.24-11.64-6-.48,29.99,3.36-.48,7.68-11.52,11.64-3.96,17.03,5.64,6.12,11.64,15.11,26.63,10.32,1.44,19.48-.21,1.73-12.4,6.63-5.77,6.34-.58v-10.38l-4.61-4.04,2.88-6.34,6.05.58,4.61,4.32-1.44,5.19-3.46,2.88.29,5.48,8.07,3.75,4.9,8.94v9.23l17.88.29,2.31,2.88-11.82,17.01-.46,165.6,7.94,2.89v25.64h-283.41Z" fill="none" stroke="#000" stroke-miterlimit="10"/>
  </g>
</svg>